<svg width="512" height="512" viewBox="0 0 512 512" fill="none" xmlns="http://www.w3.org/2000/svg">
<rect width="512" height="512" fill="#E5E5E5"/>
<path d="M0.5 256C0.5 114.876 114.876 0.5 256 0.5C397.124 0.5 511.5 114.876 511.5 256C511.5 397.124 397.124 511.5 256 511.5C114.876 511.5 0.5 397.124 0.5 256ZM372.154 212.154C383.249 201.058 383.249 182.942 372.154 171.846C361.058 160.751 342.942 160.751 331.846 171.846L224 279.693L180.154 235.846C169.058 224.751 150.942 224.751 139.846 235.846C128.751 246.942 128.751 265.058 139.846 276.154L203.846 340.154C214.942 351.249 233.058 351.249 244.154 340.154L372.154 212.154Z" fill="#017978" stroke="black"/>
</svg>
